<svg version="1.1" id="Layer_1" xmlns="http://www.w3.org/2000/svg" xmlns:xlink="http://www.w3.org/1999/xlink" x="0px" y="0px"
	 width="100%" viewBox="0 0 190 235" enable-background="new 0 0 190 235" xml:space="preserve">
<path fill="#FEFEFD" opacity="1.000000" stroke="none" 
	d="
M191.000000,112.000000 
	C191.000000,153.666672 191.000000,194.833328 191.000000,236.000000 
	C127.666664,236.000000 64.333336,236.000000 1.000000,236.000000 
	C1.000000,157.666672 1.000000,79.333336 1.000000,1.000000 
	C64.333336,1.000000 127.666664,1.000000 191.000000,1.000000 
	C191.000000,37.833332 191.000000,74.666664 191.000000,112.000000 
M36.224922,39.476048 
	C27.545990,41.358189 18.822487,43.068089 10.231753,45.291077 
	C8.790565,45.664009 7.033457,48.202103 6.929118,49.835979 
	C5.776633,67.883202 4.078398,85.954361 4.183765,104.009384 
	C4.343555,131.389923 5.863462,158.761353 6.658823,186.140915 
	C6.753083,189.385742 8.388332,190.830154 10.941275,192.045273 
	C19.206253,195.979172 27.905659,197.517090 37.815380,197.129333 
	C41.143509,196.852325 44.471638,196.575317 47.809509,197.100388 
	C50.269291,203.908112 52.340874,210.897293 55.393276,217.428040 
	C56.505341,219.807312 59.714996,222.101715 62.370678,222.729248 
	C100.243576,231.678574 138.663040,234.903778 177.518738,232.934341 
	C180.278595,232.794449 183.016861,232.228806 185.874878,231.846451 
	C186.494980,227.592117 187.760651,223.768051 187.445114,220.079254 
	C186.751404,211.968857 185.258514,203.926819 183.854996,195.224365 
	C180.800751,190.830261 177.746506,186.436172 174.875565,181.171127 
	C176.068115,170.481400 177.399109,159.804947 178.424103,149.099167 
	C180.498672,127.430977 180.326355,105.739456 178.447906,84.069740 
	C177.462387,72.700623 176.155426,61.359364 175.554718,49.642178 
	C178.726929,45.769356 181.899139,41.896538 185.626068,37.473732 
	C186.087738,28.402504 186.722351,19.335405 186.939178,10.258328 
	C187.050079,5.616142 185.114731,2.811476 179.573700,2.906199 
	C165.137634,3.152979 150.688324,2.644201 136.252975,2.909276 
	C110.932350,3.374237 86.094391,7.693478 61.448338,13.183927 
	C59.687683,13.576152 57.682831,14.801258 56.660561,16.251625 
	C51.716434,23.266190 48.475014,31.014776 46.993729,40.102093 
	C43.710526,39.970089 40.427326,39.838085 36.224922,39.476048 
z"/>
<path fill="#896C49" opacity="1.000000" stroke="none" 
	d="
M174.993622,50.005527 
	C176.155426,61.359364 177.462387,72.700623 178.447906,84.069740 
	C180.326355,105.739456 180.498672,127.430977 178.424103,149.099167 
	C177.399109,159.804947 176.068115,170.481400 174.364410,181.604675 
	C169.573151,182.355698 165.281509,183.052719 161.014969,182.923233 
	C144.802948,182.431244 128.576477,182.000793 112.400497,180.890594 
	C102.557259,180.215012 92.796555,178.336777 82.998505,176.533676 
	C83.009598,171.440948 83.020966,166.813339 83.463020,162.120239 
	C85.921951,162.033615 87.950180,162.012482 90.240829,162.271332 
	C94.837692,163.594437 99.135147,164.867188 103.523735,165.574173 
	C105.431671,165.881531 108.163719,165.727020 109.427986,164.578568 
	C115.208038,159.327927 117.277473,152.622833 115.818253,144.860519 
	C115.393120,142.599060 115.085304,140.284134 115.040466,137.987518 
	C114.648262,117.900101 114.327835,97.811287 113.986809,77.722878 
	C113.978333,77.223907 114.030815,76.717743 113.965294,76.226891 
	C113.438728,72.281784 108.244804,68.153275 105.010056,69.055191 
	C105.008583,69.018936 105.075623,69.046707 104.665558,69.037079 
	C102.498146,69.352074 100.740799,69.676704 98.574669,70.032356 
	C94.122025,69.965569 90.078178,69.867760 85.747894,69.526398 
	C84.641663,67.963104 83.264206,66.703957 83.112946,65.311592 
	C82.747574,61.948475 82.954842,58.523148 83.368240,55.083355 
	C85.763580,54.774208 87.718491,54.476185 89.680817,54.239670 
	C101.479126,52.817650 113.248108,50.673161 125.086052,50.174519 
	C141.694824,49.474915 158.355270,50.002724 174.993622,50.005527 
z"/>
<path fill="#896D4A" opacity="1.000000" stroke="none" 
	d="
M184.091843,195.856888 
	C185.258514,203.926819 186.751404,211.968857 187.445114,220.079254 
	C187.760651,223.768051 186.494980,227.592117 185.874878,231.846451 
	C183.016861,232.228806 180.278595,232.794449 177.518738,232.934341 
	C138.663040,234.903778 100.243576,231.678574 62.370678,222.729248 
	C59.714996,222.101715 56.505341,219.807312 55.393276,217.428040 
	C52.340874,210.897293 50.269291,203.908112 48.017815,196.384567 
	C55.142849,192.779373 62.059574,189.889999 69.392654,187.001251 
	C80.579102,188.736420 91.311699,190.767975 102.128380,192.133408 
	C117.051094,194.017197 132.008469,195.813538 147.006027,196.853882 
	C157.619324,197.590134 168.324249,197.063354 178.987106,196.968475 
	C180.691849,196.953308 182.390411,196.244843 184.091843,195.856888 
z"/>
<path fill="#8A6D4A" opacity="1.000000" stroke="none" 
	d="
M47.805283,39.688107 
	C48.475014,31.014776 51.716434,23.266190 56.660561,16.251625 
	C57.682831,14.801258 59.687683,13.576152 61.448338,13.183927 
	C86.094391,7.693478 110.932350,3.374237 136.252975,2.909276 
	C150.688324,2.644201 165.137634,3.152979 179.573700,2.906199 
	C185.114731,2.811476 187.050079,5.616142 186.939178,10.258328 
	C186.722351,19.335405 186.087738,28.402504 184.875534,37.746941 
	C169.541946,38.350266 154.956558,38.604187 140.377228,39.055065 
	C135.765472,39.197685 131.158371,39.768883 126.569458,40.314800 
	C116.749329,41.483040 106.911903,42.562717 97.139084,44.055283 
	C88.070412,45.440308 79.076515,47.314949 69.715607,48.843689 
	C62.189442,45.704948 54.997364,42.696529 47.805283,39.688107 
z"/>
<path fill="#6E563B" opacity="1.000000" stroke="none" 
	d="
M37.006935,196.987045 
	C27.905659,197.517090 19.206253,195.979172 10.941275,192.045273 
	C8.388332,190.830154 6.753083,189.385742 6.658823,186.140915 
	C5.863462,158.761353 4.343555,131.389923 4.183765,104.009384 
	C4.078398,85.954361 5.776633,67.883202 6.929118,49.835979 
	C7.033457,48.202103 8.790565,45.664009 10.231753,45.291077 
	C18.822487,43.068089 27.545990,41.358189 36.648521,40.070946 
	C36.071407,54.053394 34.688957,67.426346 34.176392,80.832558 
	C33.654625,94.479500 33.961430,108.159172 33.958485,121.824524 
	C33.956440,131.323029 33.730400,140.835861 34.162640,150.316849 
	C34.872379,165.884445 36.035179,181.431396 37.006935,196.987045 
z"/>
<path fill="#9B7D57" opacity="1.000000" stroke="none" 
	d="
M37.411156,197.058197 
	C36.035179,181.431396 34.872379,165.884445 34.162640,150.316849 
	C33.730400,140.835861 33.956440,131.323029 33.958485,121.824524 
	C33.961430,108.159172 33.654625,94.479500 34.176392,80.832558 
	C34.688957,67.426346 36.071407,54.053394 37.108124,40.185966 
	C40.427326,39.838085 43.710526,39.970089 47.399506,39.895100 
	C54.997364,42.696529 62.189442,45.704948 70.024979,48.997627 
	C74.756035,51.228889 78.843628,53.175896 82.931229,55.122902 
	C82.954842,58.523148 82.747574,61.948475 83.112946,65.311592 
	C83.264206,66.703957 84.641663,67.963104 85.278748,69.571404 
	C72.841347,69.702263 60.586651,69.544540 48.516197,69.389198 
	C48.516197,99.510345 48.516197,130.510269 48.516197,162.185715 
	C59.359329,162.185715 71.195831,162.185715 83.032326,162.185715 
	C83.020966,166.813339 83.009598,171.440948 82.697838,176.684738 
	C77.923721,180.534134 73.450005,183.767365 68.976295,187.000610 
	C62.059574,189.889999 55.142849,192.779373 48.012947,195.983521 
	C44.471638,196.575317 41.143509,196.852325 37.411156,197.058197 
z"/>
<path fill="#6E553A" opacity="1.000000" stroke="none" 
	d="
M69.392654,187.001251 
	C73.450005,183.767365 77.923721,180.534134 82.698105,177.149841 
	C92.796555,178.336777 102.557259,180.215012 112.400497,180.890594 
	C128.576477,182.000793 144.802948,182.431244 161.014969,182.923233 
	C165.281509,183.052719 169.573151,182.355698 174.272766,182.040161 
	C177.746506,186.436172 180.800751,190.830261 183.973419,195.540619 
	C182.390411,196.244843 180.691849,196.953308 178.987106,196.968475 
	C168.324249,197.063354 157.619324,197.590134 147.006027,196.853882 
	C132.008469,195.813538 117.051094,194.017197 102.128380,192.133408 
	C91.311699,190.767975 80.579102,188.736420 69.392654,187.001251 
z"/>
<path fill="#6E563B" opacity="1.000000" stroke="none" 
	d="
M83.368233,55.083355 
	C78.843628,53.175896 74.756035,51.228889 70.359070,49.127945 
	C79.076515,47.314949 88.070412,45.440308 97.139084,44.055283 
	C106.911903,42.562717 116.749329,41.483040 126.569458,40.314800 
	C131.158371,39.768883 135.765472,39.197685 140.377228,39.055065 
	C154.956558,38.604187 169.541946,38.350266 184.598175,38.021935 
	C181.899139,41.896538 178.726929,45.769356 175.274170,49.823853 
	C158.355270,50.002724 141.694824,49.474915 125.086052,50.174519 
	C113.248108,50.673161 101.479126,52.817650 89.680817,54.239670 
	C87.718491,54.476185 85.763580,54.774208 83.368233,55.083355 
z"/>
<path fill="#EEE3B0" opacity="1.000000" stroke="none" 
	d="
M83.463020,162.120239 
	C71.195831,162.185715 59.359329,162.185715 48.516197,162.185715 
	C48.516197,130.510269 48.516197,99.510345 48.516197,69.389198 
	C60.586651,69.544540 72.841347,69.702263 85.565186,69.814972 
	C90.078178,69.867760 94.122025,69.965569 98.848923,70.229187 
	C101.379852,69.945572 103.227737,69.496140 105.075623,69.046707 
	C105.075623,69.046707 105.008583,69.018936 105.414764,69.065735 
	C106.539070,70.255348 107.814301,71.362724 107.889603,72.546432 
	C108.688324,85.101410 109.847771,97.669991 109.814644,110.231934 
	C109.774864,125.319351 108.664894,140.403564 108.045059,155.490265 
	C107.961418,157.525986 108.033546,159.568115 108.033546,160.199631 
	C101.401291,160.857788 95.689850,161.424561 89.978416,161.991348 
	C87.950180,162.012482 85.921951,162.033615 83.463020,162.120239 
z"/>
<path fill="#6F573D" opacity="1.000000" stroke="none" 
	d="
M90.240829,162.271332 
	C95.689850,161.424561 101.401291,160.857788 108.033546,160.199631 
	C108.033546,159.568115 107.961418,157.525986 108.045059,155.490265 
	C108.664894,140.403564 109.774864,125.319351 109.814644,110.231934 
	C109.847771,97.669991 108.688324,85.101410 107.889603,72.546432 
	C107.814301,71.362724 106.539070,70.255348 105.416229,69.101990 
	C108.244804,68.153275 113.438728,72.281784 113.965294,76.226891 
	C114.030815,76.717743 113.978333,77.223907 113.986809,77.722878 
	C114.327835,97.811287 114.648262,117.900101 115.040466,137.987518 
	C115.085304,140.284134 115.393120,142.599060 115.818253,144.860519 
	C117.277473,152.622833 115.208038,159.327927 109.427986,164.578568 
	C108.163719,165.727020 105.431671,165.881531 103.523735,165.574173 
	C99.135147,164.867188 94.837692,163.594437 90.240829,162.271332 
z"/>
<path fill="#6F573D" opacity="1.000000" stroke="none" 
	d="
M104.665558,69.037079 
	C103.227737,69.496140 101.379852,69.945572 99.257713,70.198166 
	C100.740799,69.676704 102.498146,69.352074 104.665558,69.037079 
z"/>
</svg>